<svg viewBox="0 0 1024 1024" xmlns="http://www.w3.org/2000/svg"><path d="M113.664 354.304q27.648-46.08 74.24-84.48T294.4 203.776t129.536-43.008 145.408-15.36q100.352 0 189.44 25.088t171.008 84.48l1.024 176.128Q875.52 389.12 814.08 358.912t-125.952-44.544-131.584-10.752T423.936 332.8q23.552 26.624 37.888 60.928t14.336 73.216q0 40.96-15.872 77.312t-42.496 62.976-62.976 42.496-77.312 15.872-77.312-15.872-62.976-42.496-42.496-62.976-15.872-77.312q0-63.488 34.816-112.64zM276.48 505.856q17.408 0 29.184-11.776t11.776-29.184-11.776-29.184-29.184-11.776-29.184 11.776-11.776 29.184 11.776 29.184 29.184 11.776zm475.136 87.04q-17.408 0-29.184 11.776t-11.776 29.184 11.776 29.184 29.184 11.776T780.8 663.04t11.776-29.184-11.776-29.184-29.184-11.776zm162.816 151.552q-27.648 46.08-74.24 84.48t-106.496 66.048-130.048 43.008-144.896 15.36q-100.352 0-189.44-25.088t-171.008-84.48L97.28 667.648q55.296 41.984 116.736 72.192t125.952 44.544 131.072 10.752 133.12-29.184q-23.552-26.624-37.888-60.928t-14.336-73.216q0-40.96 15.872-77.312t42.496-62.976 62.976-42.496 77.312-15.872 77.312 15.872 62.976 42.496 42.496 62.976 15.872 77.312q0 31.744-9.216 60.416t-25.6 52.224z"/></svg>