<svg viewBox="0 0 1024 1024" xmlns="http://www.w3.org/2000/svg"><path d="M723.306 503.293q24.012 0 48.985 11.526t44.662 33.617 32.176 54.267 12.487 73.477q0 43.222-22.091 79.24t-57.15 58.109-78.278 27.374-86.444-13.927q-17.289 39.38-38.42 76.838t-49.944 65.793-65.793 43.702-85.003 8.645q-8.644-.96-15.368-2.401t-11.526-3.362q-5.763-1.921-9.604-3.842l16.328-138.31q16.328 1.921 34.577-2.881t34.097-12.486 27.374-17.289 14.407-18.25q7.684-21.13 16.809-50.425t21.61-61.95q-13.446-25.934-23.531-57.63t-17.77-71.075q-3.841-20.17-6.242-47.544t-3.842-55.228-2.882-54.748-3.842-48.024-6.243-33.136-9.605-10.085q-11.525-1.921-19.69 22.09t-13.926 60.03-9.125 75.399-4.322 67.234H257.472q-1.92-73.958-4.322-117.66t-6.243-70.595-10.085-43.702-17.77-36.979q-4.802-8.644-13.926-14.407t-17.77-8.644q-10.565-3.842-22.09-4.803V131.586q26.893 0 49.465 8.644t41.3 23.532 33.617 34.578 26.413 40.82l4.803-10.565q5.763-11.526 15.368-27.854t24.492-31.216 35.058-25.453 47.063-10.565q35.538 0 59.55 19.21t39.86 51.386 25.453 74.437 15.848 88.364 11.046 93.167 11.525 89.325q24.012-21.13 52.827-33.617t64.352-12.486zm-3.842 194.018q4.803-.96 9.605-8.165t6.243-14.887-3.361-14.407-20.17-6.724q-10.566 1.921-19.69 12.967t-18.73 29.295q19.21 8.644 46.103 1.92z"/></svg>