<svg viewBox="0 0 1024 1024" xmlns="http://www.w3.org/2000/svg"><path d="M353.172 681.554q18.094 0 30.157-12.566t12.063-29.654-12.063-29.655-30.157-12.566q-17.09 0-29.152 12.566t-12.063 29.655 12.063 29.654 29.152 12.566zm-202.054-42.22q0-41.215 15.582-77.404t42.722-63.833 63.33-43.728 77.404-16.084q-3.016-24.126-3.016-51.267 2.01-65.34 26.64-111.582t62.827-73.885 85.948-38.2 95.498-4.523 90.974 28.147 72.88 58.304 41.215 86.45-3.518 113.593q-23.12 94.493-59.31 181.949t-73.382 168.88q-17.09 38.2-15.581 56.796t11.56 23.624 21.613-1.006 14.576-18.094l154.807 3.016q-1.005 48.251-21.613 82.43t-52.775 53.78-71.875 25.131-77.403-3.016-69.362-30.66-49.257-58.304-16.084-85.948 29.655-112.084q38.2-82.43 68.859-162.347t54.786-160.336q9.047-30.157-5.027-53.78t-38.199-34.681-52.272-8.545-46.744 22.618-22.115 60.818 21.612 106.052q11.058 28.147 19.1 60.818t8.042 66.848v10.053q0 42.22-16.084 78.911t-43.225 63.833-63.833 42.723-77.906 15.58-77.907-15.58-63.832-42.723-43.226-63.833-16.084-78.911z"/></svg>