<svg viewBox="0 0 1024 1024" xmlns="http://www.w3.org/2000/svg"><path d="M979.056 403.794a35.24 35.24 0 00-28.446-23.978l-281.239-40.86L543.6 84.159a35.24 35.24 0 00-31.597-19.634 35.247 35.247 0 00-31.599 19.634L354.628 338.957l-281.239 40.86a35.229 35.229 0 10-19.529 60.095l203.507 198.33-48.043 280.05a35.223 35.223 0 0014.016 34.454 35.248 35.248 0 0037.109 2.683L512 823.207l251.547 132.222a35.182 35.182 0 0016.393 4.046 35.207 35.207 0 0020.717-6.729 35.22 35.22 0 0014.016-34.455l-48.039-280.05 203.506-198.33a35.23 35.23 0 008.915-36.117z"/></svg>