<svg viewBox="0 0 1031 1024" xmlns="http://www.w3.org/2000/svg"><path d="M790.734 1022.023q-41.514 0-72.155-8.896-22.733-6.919-42.996-19.768t-42.996-45.467q-1.977-2.965-4.448-5.93t-4.448-6.92l-1.977-2.965q-21.745-37.56-29.158-84.015t-9.39-92.911l-.988-16.804v-474.44q0-10.872-1.483-22.733t-6.425-22.734q-7.907-10.872-17.791-5.93-4.942 1.976-9.884 10.378t-6.92 24.216q.99 56.34.495 122.564t-1.483 133.436-1.977 132.448-1.976 119.599H374.61V263.907q0-10.872-1.977-22.733t-6.919-22.734q-6.919-11.86-17.791-5.93-4.942 2.965-10.379 12.85t-5.436 27.675q.989 123.552-1.483 251.058t-4.447 251.058H166.054V263.907q0-32.617-15.815-57.328t-58.316-24.71H74.13q26.688-30.641 55.846-44.479t73.637-13.838q27.676 0 52.386 10.379t42.502 29.158l3.954-2.965 4.942-3.954q25.699-19.768 53.374-26.193t50.41-6.425q28.664 0 53.374 10.379t42.502 29.158l3.954-2.965 3.953-3.954q25.7-19.768 53.869-26.193t50.903-6.425q24.71 0 47.939 8.896t41.019 24.71 28.664 38.054 10.873 48.927v61.282q0 32.618-.495 81.544t-.988 103.784-.494 111.197-.494 102.301 0 78.085 1.482 38.054l1.977 11.861 2.965 14.826q7.908 28.664 17.298 47.444t21.745 29.159 28.17 13.838 35.583 3.459q16.803-1.977 32.617-7.413t27.676-12.355l-33.606-61.282 149.25 4.942L971.615 1024q0-.988-8.402-15.815t-19.274-36.571q-5.93 6.919-16.309 15.815t-28.17 16.308-44.478 12.85-64.247 5.436z"/></svg>