<svg viewBox="0 0 1024 1024" xmlns="http://www.w3.org/2000/svg"><path d="M331.776 507.904H172.032q-48.128-37.888-72.704-90.624T71.68 311.296t13.824-101.888 51.712-78.848 86.016-35.84 115.712 25.088q61.44 29.696 102.912 90.112t69.12 138.24q26.624-77.824 68.096-138.24t102.912-90.112Q747.52 89.088 798.72 94.72t86.016 35.84 51.712 78.848 13.824 101.888-27.648 105.984-72.704 90.624H689.152q13.312-23.552 24.576-43.008 9.216-17.408 17.92-32.256t10.752-19.968q3.072-7.168 11.264-30.208t11.776-45.056-2.56-33.28-32.768 6.144q-35.84 23.552-58.88 72.192t-37.376 104.96-20.992 111.104-10.752 91.648-7.168 77.312-5.12 73.216q-3.072 39.936-4.096 76.8H436.224q-1.024-36.864-4.096-76.8-2.048-32.768-5.632-73.216t-7.68-77.312-10.752-91.648-20.992-111.104-37.376-104.96-58.88-72.192q-26.624-17.408-32.768-6.144t-2.56 33.28 11.776 45.056 11.264 30.208q2.048 5.12 10.752 19.968t17.92 32.256q11.264 19.456 24.576 43.008z"/></svg>