<svg viewBox="0 0 1024 1024" xmlns="http://www.w3.org/2000/svg"><path d="M398.548 261.135q0-11.737-1.956-22.984t-6.846-22.006q-4.89-6.846-9.291-7.335t-8.314 1.467q-5.868 2.934-10.758 12.714t-4.89 27.385q.978 122.254-1.467 248.42t-4.401 247.443H192.183V261.135q0-33.253-15.648-57.215t-57.704-23.962h-17.605q26.407-30.319 55.26-44.011t71.885-13.693q28.363 0 52.813 10.27t42.056 28.851l3.912-2.934 4.89-3.912q25.429-19.56 52.814-25.918t49.88-6.357q27.384 0 51.835 10.27t43.034 28.851l2.934-2.934 4.89-3.912q25.429-19.56 52.814-25.918t49.88-6.357q25.428 0 48.412 8.802t40.1 24.451 27.873 37.165 10.758 47.924q1.957 60.638 0 147.683 5.869-16.627 14.671-34.231t21.028-32.275 27.874-23.962 36.187-9.291q16.626 0 39.61 4.4t44.012 30.32 35.698 81.665 14.67 157.464q0 74.33-17.115 133.012t-43.034 103.183-56.237 76.286-56.726 52.325q6.847 2.934 13.693 3.912t14.67.978q18.583 0 34.232-5.868t28.363-13.693q13.692-8.802 26.406-20.538v55.747q-5.868 15.649-23.472 27.385-14.67 10.759-42.056 19.072t-74.33 8.313q-51.836 0-89.98-16.626-28.362 9.78-57.703 16.626t-53.792 11.737q-28.363 5.868-55.748 9.78v-60.638q13.693 0 30.32-3.912 13.692-2.934 32.763-7.824t41.567-14.67q-13.693-18.584-22.495-41.567t-14.182-47.435-8.313-50.369-3.912-51.346V261.135q0-11.737-1.956-22.984t-6.846-22.006q-3.912-6.846-8.314-7.824t-8.313.978q-4.89 2.934-10.27 11.247t-6.356 23.962q.978 55.748.489 120.787t-1.467 131.545-2.445 131.057-2.446 118.342H398.548V261.135zM765.31 542.808v20.539q-.978 54.77-1.956 101.715t-.978 81.177q0 32.275 2.445 58.193t7.336 45.478q37.165-42.055 61.616-107.094t24.45-159.909q0-89.979-6.846-133.99t-16.626-55.748-21.517 1.956-22.495 39.121-17.604 56.237-7.825 52.325z"/></svg>