<svg viewBox="0 0 1024 1024" xmlns="http://www.w3.org/2000/svg"><path d="M0 556.416c0 46.4 4.352 88.384 13.024 125.92 8.672 37.568 20.704 70.208 36.064 97.888 15.328 27.712 34.88 52.096 58.56 73.12 23.712 21.024 49.408 38.208 77.12 51.584 27.712 13.344 59.328 24.192 94.88 32.544 35.552 8.352 71.872 14.176 108.928 17.536 37.056 3.328 77.76 4.992 122.176 4.992 44.736 0 85.632-1.664 122.688-4.992 37.056-3.36 73.44-9.184 109.152-17.536 35.712-8.352 67.52-19.2 95.392-32.544 27.872-13.376 53.728-30.56 77.6-51.584 23.872-21.024 43.584-45.408 59.104-73.12 15.52-27.68 27.616-60.32 36.288-97.888 8.672-37.536 13.024-79.52 13.024-125.92 0-82.784-27.712-154.4-83.104-214.816 2.976-8.032 5.728-17.12 8.256-27.296 2.496-10.176 4.832-24.704 7.008-43.552 2.176-18.88 1.344-40.64-2.496-65.344-3.84-24.704-10.944-49.92-21.312-75.616l-7.488-1.504c-5.344-.992-14.112-.768-26.304.736-12.192 1.504-26.368 4.512-42.56 9.024-16.192 4.512-37.056 13.184-62.592 26.048-25.536 12.832-52.48 28.96-80.864 48.32-48.736-13.376-115.68-20.032-200.8-20.032-84.8 0-151.552 6.656-200.288 20.032-28.384-19.36-55.488-35.488-81.376-48.32-25.856-12.864-46.464-21.536-61.824-26.048-15.36-4.512-29.728-7.424-43.072-8.768-13.344-1.344-21.792-1.76-25.28-1.248-3.52.512-6.272 1.088-8.256 1.76-10.368 25.696-17.472 50.88-21.28 75.616-3.84 24.704-4.672 46.464-2.528 65.344 2.176 18.848 4.512 33.376 7.008 43.552 2.528 10.176 5.28 19.264 8.288 27.296C27.712 402.016 0 473.632 0 556.416zM125.696 682.08c0-48.064 21.856-92.128 65.6-132.192 12.992-12 28.192-21.088 45.536-27.296 17.376-6.144 36.992-9.664 58.848-10.496 21.856-.832 42.816-.672 62.848.512 20.032 1.152 44.736 2.752 74.112 4.736 29.376 2.016 54.752 3.008 76.096 3.008 21.376 0 46.752-.992 76.128-3.008 29.376-1.984 54.08-3.584 74.112-4.736 20.032-1.184 40.96-1.344 62.816-.512 21.888.832 41.504 4.352 58.848 10.496 17.376 6.176 32.544 15.296 45.568 27.296 43.744 39.392 65.6 83.456 65.6 132.192 0 28.736-3.584 54.176-10.784 76.384-7.168 22.208-16.352 40.8-27.52 55.84-11.2 15.008-26.72 27.776-46.56 38.304-19.872 10.496-39.232 18.592-58.112 24.288-18.848 5.664-43.04 10.08-72.608 13.248-29.536 3.168-55.904 5.088-79.104 5.76-23.2.672-52.672 1.024-88.384 1.024s-65.184-.352-88.384-1.024c-23.2-.672-49.568-2.592-79.104-5.76-29.536-3.168-53.728-7.584-72.608-13.248-18.848-5.696-38.208-13.792-58.08-24.288-19.872-10.528-35.392-23.296-46.56-38.304-11.2-15.04-20.384-33.632-27.552-55.84-7.168-22.208-10.752-47.648-10.752-76.384zM640 672a2 3 2520 1 0 128 0 2 3 2520 1 0-128 0zm-384 0a2 3 2520 1 0 128 0 2 3 2520 1 0-128 0z"/></svg>