<svg viewBox="0 0 1024 1024" xmlns="http://www.w3.org/2000/svg"><path d="M92.16 146.432q19.456-5.12 46.08-3.072 22.528 2.048 54.272 10.24t74.752 29.696q28.672 15.36 52.736 37.376t44.544 47.104 38.912 49.664 36.864 44.544 37.376 32.768 41.472 12.8 41.984-12.8 37.888-32.768 36.864-44.544 38.912-49.664 44.544-47.104 52.736-37.376q41.984-21.504 74.24-29.696t54.784-10.24q26.624-2.048 46.08 3.072v161.792q-21.504-1.024-40.96 2.048-17.408 2.048-36.864 7.168t-33.792 16.384q-11.264 8.192-26.624 26.112t-33.28 39.936-37.888 45.056-38.4 41.472q55.296 39.936 88.576 100.352t33.28 131.072q0 60.416-24.064 113.152t-65.536 91.648-97.792 61.952-119.808 23.04-119.808-23.04-97.792-61.952-65.536-91.648-24.064-113.152q0-73.728 34.816-135.168t93.184-100.352q-18.432-18.432-36.864-40.96t-36.352-44.032-32.768-38.4-25.088-25.088q-15.36-11.264-34.304-16.384t-36.352-7.168q-19.456-3.072-40.96-2.048V146.432zM374.784 716.8q0 28.672 10.752 53.76t29.696 44.032 44.544 29.696 54.272 10.752 54.272-10.752 45.056-29.696 30.208-44.032 10.752-53.76-10.752-53.76-30.208-43.52-45.056-29.184-54.272-10.752-54.272 10.752-44.544 29.184-29.696 43.52-10.752 53.76z"/></svg>