<svg viewBox="0 0 1024 1024" xmlns="http://www.w3.org/2000/svg"><path d="M564.224 473.088q10.24-114.688 54.272-208.896t112.64-157.696h167.936q-68.608 63.488-107.52 157.696t-47.104 208.896h134.144V624.64H747.52q11.264 105.472 50.688 192t103.936 144.896H735.232Q670.72 903.168 626.176 816.64t-58.88-192H457.728q-14.336 105.472-58.368 192T289.792 961.536H122.88q64.512-58.368 103.936-144.896t50.688-192H135.168V473.088H281.6q-8.192-114.688-47.104-208.896t-107.52-157.696h166.912q68.608 63.488 113.152 157.696t53.76 208.896h103.424z"/></svg>