<svg viewBox="0 0 1024 1024" xmlns="http://www.w3.org/2000/svg"><path d="M143.36 817.152q63.488-19.456 126.976-29.696v-424.96q-63.488-10.24-126.976-29.696V173.056q93.184 27.648 180.736 39.936t185.856 12.288q104.448 0 197.12-13.824t192-45.568v159.744q-34.816 11.264-69.12 19.968t-70.144 15.872V788.48q35.84 7.168 70.144 15.872t69.12 19.968v159.744q-99.328-31.744-192-45.568t-197.12-13.824q-98.304 0-185.856 12.288T143.36 976.896V817.152zm366.592-50.176q13.312 0 34.816.512t33.792.512V381.952h-128V768q11.264 0 30.208-.512t29.184-.512z"/></svg>