<svg viewBox="0 0 1024 1024" xmlns="http://www.w3.org/2000/svg"><path d="M113.664 743.424h796.672v148.48H113.664v-148.48zM578.56 622.592v-91.136q32.768-18.432 52.736-50.688t19.968-71.168q0-28.672-10.752-53.76t-29.696-43.52-44.544-29.184T512 272.384q-29.696 0-54.784 10.752t-44.544 29.184-30.208 43.52-10.752 53.76q0 38.912 19.456 70.656t51.2 49.152v150.528H113.664V530.432h118.784q-13.312-27.648-20.48-57.856T204.8 409.6q0-59.392 24.064-112.64T294.4 204.8t97.792-61.952T512 119.808t119.808 23.04T729.6 204.8t65.536 92.16T819.2 409.6q0 32.768-7.168 62.976t-20.48 57.856h118.784v149.504H578.56v-57.344z"/></svg>